<svg width="66" height="47" viewBox="0 0 66 47" fill="none" xmlns="http://www.w3.org/2000/svg">
<path fill-rule="evenodd" clip-rule="evenodd" d="M26.8725 10.4043L26.8639 10.4293C25.8418 13.2678 24.6371 16.0131 23.2756 18.5839C22.9041 19.2914 22.5219 19.9858 22.1268 20.6645C20.6301 23.2475 18.9723 25.6067 17.1663 27.6392C15.5923 29.4468 15.8586 28.9207 14.3039 30.5677C13.9152 33.606 13.2044 37.9871 11.9568 41.7904C11.1472 43.3596 10.5052 43.5978 10.0306 42.5041C9.00843 40.8639 10.6662 36.5486 13.2173 31.3236L13.3569 30.9423L12.9897 31.0794C10.9991 33.4556 7.73074 36.3971 3.18687 39.9052C0.678729 41.057 -0.347733 41.0899 0.103218 40.0041C1.00941 36.6577 6.01713 34.3901 10.3742 31.5319C8.74001 31.8495 6.85889 32.1383 4.72869 32.3977C2.5856 32.1741 1.88556 31.7888 2.62855 31.2417C4.51825 29.4349 8.54029 29.8001 12.47 29.6673C13.8637 28.7261 13.2151 29.1878 14.3554 28.0294C14.5379 18.3375 19.2085 10.5371 25.0086 10.239C25.1181 9.94496 25.2233 9.64985 25.3264 9.35367L25.3371 9.32652L25.3457 9.29873L25.3564 9.27093L25.3586 9.26478L25.365 9.24334L25.3758 9.21556L25.3844 9.18777L25.3887 9.17588L25.3951 9.15997L25.4037 9.13218L25.4144 9.10439L25.4209 9.08677L25.423 9.07659L25.4338 9.0488L25.4423 9.021L25.4509 8.9981V8.99322L25.4617 8.96542L25.4724 8.93741L25.481 8.90962V8.90899L25.4896 8.88184L25.5003 8.85404L25.5089 8.82625L25.5111 8.81988L25.5197 8.79824L25.5841 8.60326L25.5948 8.57526L25.6141 8.51947L25.6227 8.49146C25.7387 8.14712 25.8504 7.80172 25.9599 7.45548L25.9813 7.39035L25.9964 7.34071L26.0093 7.30061L26.0329 7.22572L26.0372 7.21087L26.0651 7.12133L26.0672 7.11072L26.093 7.03138L26.1038 6.99553L26.1059 6.98407H27.9956C27.652 8.13546 27.2762 9.27708 26.8725 10.4043ZM36.9996 10.4043L37.0082 10.4293C38.0282 13.2678 39.235 16.0131 40.5964 18.5839C40.9679 19.2914 41.3502 19.9858 41.7431 20.6645C43.242 23.2475 44.8998 25.6067 46.7057 27.6392C48.2798 29.4468 49.9483 31.0244 51.6963 32.3103C52.0849 35.3484 52.7936 39.7295 54.0434 43.5333C54.8529 45.1027 55.495 45.3403 55.9674 44.2464C56.9917 42.6066 55.3318 38.2913 52.7828 33.0663L52.6411 32.685L53.0105 32.8221C55.0011 35.1982 58.2694 38.1398 62.8133 41.6479C65.3193 42.7999 66.3479 42.8328 65.8969 41.7465C64.9907 38.4003 59.983 36.1326 55.6238 33.2746C57.2601 33.5922 59.1412 33.8807 61.2693 34.1404C63.4145 33.9168 64.1146 33.5313 63.3716 32.9844C61.4819 31.1776 57.4598 31.5427 53.5301 31.4097C52.6669 30.8261 51.8187 30.1639 50.9919 29.4315C50.9382 29.3673 50.8824 29.3028 50.8287 29.2374C50.8352 29.2599 50.8437 29.2824 50.8502 29.3049C50.3992 28.9001 49.9547 28.4747 49.5167 28.0294C49.3341 18.3375 44.6636 10.5371 38.8635 10.239C38.6466 9.65133 38.4383 9.05919 38.2407 8.46366C41.0646 9.4449 46.622 9.2983 54.9087 8.0228C57.4749 7.00316 58.2028 6.28458 57.0926 5.86726C52.8344 3.61392 44.7624 8.37413 38.1549 8.20441C38.1162 8.08878 38.0775 7.97273 38.041 7.85668C41.0109 5.97525 49.1366 1.44375 47.7064 0.953453C44.7302 0.638184 41.464 2.80581 37.9122 7.45548C37.137 5.00505 36.5057 2.5022 36.0418 0L34.2617 0.322071C34.8951 3.72319 35.8228 7.12579 36.9996 10.4043ZM29.3098 38.6821C31.2768 43.691 34.6654 47 38.5178 47C43.7874 47 48.1917 40.8088 49.2697 32.5424C45.7888 29.8109 42.7417 25.9905 40.1691 21.5562C38.2923 18.318 36.6646 14.7455 35.301 11.0282C30.7936 13.3274 27.5146 20.3308 27.5146 28.6145C27.5146 29.3671 27.5425 30.1085 27.594 30.8371C27.8023 33.5046 28.3778 36.144 29.3098 38.6821ZM53.6804 31.9104L53.6418 31.8805V31.8801L53.6804 31.9104ZM41.1161 43.5694C41.1161 42.6877 39.8942 41.9727 38.3846 41.9727C36.875 41.9727 35.651 42.6877 35.651 43.5694C35.651 44.4513 36.875 45.1661 38.3846 45.1661C39.8942 45.1661 41.1161 44.4513 41.1161 43.5694ZM43.4761 43.1039C43.4761 42.8421 43.1132 42.63 42.6665 42.63C42.2177 42.63 41.8548 42.8421 41.8548 43.1039C41.8548 43.3657 42.2177 43.5777 42.6665 43.5777C43.1132 43.5777 43.4761 43.3657 43.4761 43.1039ZM30.1709 45.1474C28.7171 46.3338 27.0808 47 25.3543 47C20.0825 47 15.6803 40.8088 14.6024 32.5424C18.0833 29.8109 21.1304 25.9905 23.7008 21.5562C25.5798 18.318 27.2075 14.7455 28.5711 11.0282C29.3098 11.405 30.0141 11.9087 30.6777 12.5229C27.5489 16.1964 25.5025 22.2733 25.5025 29.1492C25.5025 29.9804 25.5325 30.7998 25.5905 31.6043C25.8203 34.5505 26.4559 37.4662 27.4867 40.2697C28.2168 42.1305 29.1251 43.7786 30.1709 45.1474ZM12.3197 30.1679L12.3583 30.1378V30.1376L12.3197 30.1679ZM22.7538 43.5694C22.7538 42.6877 23.9778 41.9727 25.4874 41.9727C26.9971 41.9727 28.2211 42.6877 28.2211 43.5694C28.2211 44.4513 26.9971 45.1661 25.4874 45.1661C23.9778 45.1661 22.7538 44.4513 22.7538 43.5694ZM20.396 43.1039C20.396 42.8421 20.7589 42.63 21.2056 42.63C21.6544 42.63 22.0173 42.8421 22.0173 43.1039C22.0173 43.3657 21.6544 43.5777 21.2056 43.5777C20.7589 43.5777 20.396 43.3657 20.396 43.1039Z" fill="#84A98C"/>
</svg>
